<?xml version="1.0" encoding="UTF-8"?>
<svg id="Layer_1" data-name="Layer 1" xmlns="http://www.w3.org/2000/svg" version="1.1" viewBox="0 0 1450 150">
  <defs>
    <style>
      .cls-1 {
        fill: #fff;
        fill-rule: evenodd;
        stroke-width: 0px;
      }
    </style>
  </defs>
  <path class="cls-1" d="M.5,151.5V27.37l5.32-1.99s0,0,2.68-.66c2.66-.66,4-1.33,4-1.33t2.66.68c2.66.66,2.66,0,7.34.66l4-.66h2c2,0,2.66-1.33,2.66-1.33h2.66l6,.66s0,0,2.68.68c2.66.66,0,0,2,1.31,2,1.33,2,3.32,2,3.32l5.32,3.98,3.34,2.64,4.66,1.99h4.68c4.66,0,0,0,4.66.68,4.66.66,0,0,2.66,2.64.86.85,1.16,1.15,1.22,1.25-.1-.04-.64-.4.12.74,1.34,1.99,4.66,0,4.66,0h4.68s0,0,.66,1.99c.66,1.99,3.34,2.64,3.34,2.64l13.99-7.95,3.32-2.64,2.68-1.99,2.66-3.32h12.65s0,0,3.34-.66c3.34-.66,0,0,4.66-4.63l3.34-1.33,2.66-.66,3.34-3.32,6.66-1.99s6.68-1.99,8.68-1.33c2,.68,4.66-.66,4.66-.66l6-4.63h13.99c2,0,3.34-.68,3.34-.68l4.66-1.31,4.66.66,4,.66,2.68,1.99c2.66,1.99,4.66,0,4.66,0l3.34-2.64,2,.66c1,.34,2.16,1.01,3.08,1.59.92.58,1.58,1.07,1.58,1.07l2.66,3.3c2.68,3.32,0,0,1.34,3.32,0,0,3.34-.66,5.34,0,2,.66,5.32-2.64,5.32-2.64l2,.66c1,.32,1.84,1.31,2.42,2.23.58.91.92,1.75.92,1.75l2.66,2.64c2.68,2.66,4,.68,4,.68l4-1.99s0,0,2,.66c2,.66,3.34,0,6.68,1.33h2.66l6-1.99s4-.68,7.34-.68,0,0,2,1.33c2,1.33,4,0,4,0h3.32l2-2.64,2-2.66s0,0,2.68-.66c2.66-.66,0,0,3.32,0s2.68-3.98,2.68-3.98l2-.66c2-.68,3.32,1.31,3.32,1.31l3.34.68,2.66,1.31,2,1.33c2,1.33.68,2.64.68,2.64l4.66.68,4.66.66,4.68.66,2.66.68c2.66.66,1.34,2.64,1.34,2.64l.66,1.99c.66,1.99,4.66.66,4.66.66l.68-2.64,4.66-.66,2.66-.68,5.34-3.3,2,.66c2,.66,3.34-.66,3.34-.66l3.32-3.98s6-.68,10-.68h4l.68-2.64,11.55,21.75h12.67c2,0,3.32.66,5.32.66s2.68,2.66,2.68,2.66h2c2,0,2.44-10.33,2.44-10.33l4.22,10.33,4.66-2.66,6-3.3,1.96-1.46c.48-.35,1-.63,1.56-.81l2.29-.76c.57-.19,1.17-.29,1.77-.29h9.09c2.66,0,3.32-1.33,3.32-1.33l2.94-1.95c.7-.46,1.48-.76,2.31-.87l3.42-.48,3.84-.65c.11-.02.22-.03.32-.04l5.53-.6c.2-.02.41-.03.61-.03h3.01c.45,0,.9-.06,1.34-.16l.94-.23c.7-.17,1.36-.48,1.94-.9l4.99-3.61c.95-.69,2.1-1.06,3.28-1.06h2.9c.42,0,.84-.05,1.25-.14,1.13-.26,3.58-.87,6.02-1.85,3.32-1.33,0,0,4.66-.66,1.56-.22,2.08-.3,2.14-.3-.22.06-1.3.3-.14.3l7.04.63c.2.02.39.05.59.08l1.94.38c.72.14,1.45.14,2.17,0,1.44-.28,2.94.01,4.17.82l1.61,1.06c.32.21.66.39,1.01.53h.03c1.73.7,3,2.21,3.38,4.03l3.15,19.03s3.32-.66,6-.66,0,0,3.32.66l10-9.94h4.68l2.66-2.64,2.66-1.99,4.68-2.66,7.32-1.31h4.68c4.66,0,0,0,2,1.31,2,1.33,0,0,3.32,3.32l2-3.32,2.68-1.31,2-3.32,2-.66c2-.67,3.32-.67,7.32,0h2.68l4,.66,2.66-.66,3.34-2.66,3.32-.66,4,1.33,2.68,1.99,3.32-1.99,4-2.66,4.68-3.3,4-.67h2c2,0,5.32,2.66,5.32,2.66l2.68.66,2,.66c2,.67,3.32-.66,3.32-.66l1.34-2.64.66-2.66,3.34-1.99,4.66.67,2,.66c2,.66,3.34,1.99,3.34,1.99l2.66,3.32,2.68,1.99,2.66-.67v-2.64l1.34-2.64,5.32-3.32h2.68c2.66,0,3.32-.66,3.32-.66h3.34l2.66-.67,2,.67c2,.66,4.68-.67,4.68-.67,0,0,2-2.64,5.32-3.3h5.34c2.66,0,6.66-1.33,6.66-1.33,0,0,3.34-1.33,6-1.33s3.34,1.99,3.34,1.99h4c4,0,0,0,2.66.67,2.68.66,4.68-1.99,4.68-1.99t2,.66c2,.66,3.32.66,3.32.66l3.34,1.33,4,.66,2.66,1.33,2.68,1.99,2.66,1.33,2.66,2.64,3.34,2.64s5.34.67,7.34,1.33c2,.66,3.32-.66,3.32-.66h7.34l2,.66c2,.66,4.66.66,4.66.66l4,.67s0,0,2,1.31c2,1.33,1.34,2.66,1.34,2.66l3.34,2.64,2.66,1.33,3.34.66,6,2.64,9.99,1.99,2.66.68c2.66.66,6.66,1.99,6.66,1.99l6,1.31h5.34l6.66-.66,2,.66c2,.68,2.68-1.99,2.68-1.99h2.66l2,.68c2,.66,2,3.98,2,3.98l2.66,2.64,3.34.66,2-.66c2-.66,2.66-2.64,2.66-2.64h6.68l3.32-.68s0,0,3.34-.66l3.34-1.99,3.32,1.33c3.34,1.31,0,0,3.34,3.3l4-.66h4l7.34.66,2.66,1.33,6,.66,2.66-.66h2c2,0,2.68-1.33,5.34-.66.88.22,1.78.3,2.56.3,1.58,0,2.78-.3,2.78-.3l2,1.99c2,1.99,4-.68,4-.68l3.32-1.99,4.68-1.99s2.66-.66,6,1.33l3.32,3.32h2.68l3.32-3.98,6-.68,2,.68c2,.66,4,1.31,4,1.31l2.68,1.33,3.32.66,3.34.68,4,.66s7.34-.66,9.99,0c2.66.66,0,0,1.34,0h11.32l3.34-1.33,4.66-1.99s0,0,2.68.68l2.66.66,2.66-1.99,1.34-2.64,3.34-2.66,4-2.64,2-3.32,3.99-2.64,3.32-1.33,2.68-.66,1.32-2.64v-2.66l2.68-1.99,4,.67h4.66l3.33,1.99s0,0,2,1.31c2,1.33,5.32,2.66,5.32,2.66l4-1.99,3.34-1.99,4.66-2.66,3.99-.66,3.34.66,4-.66,4,1.99s.02.02.04.02c0,0,.02,0,.06.02.18.06.66.2,1.9.62,2,.67,3.34,1.33,3.34,1.33h7.99l2,3.98,4.66,1.33c2.32.66,1.91,12.35,2.67,12.85.74.5.92.83.92.83l4.66,1.33c4.66,1.31,0,0,2,0h16.65l5.43,10.43,3.32-1.99h4.67l2,1.33c2,1.33,3.32,2.64,3.32,2.64h2c2,0,3.34-2.64,3.34-2.64l3.34-3.98,2.66-.66,2-3.32,3.99-3.32h4.66s7,17,10.33,17l5.34-3.98h2c1,0,2,.16,2.74.34.76.16,1.26.32,1.26.32l2,.66c2,.67,2.66,1.99,2.66,1.99l2.66-1.31,3.33-2.66v-3.3l.57-1.13c.47-.94,1.44-1.53,2.5-1.53.6,0,1.19.2,1.68.56l1.91,1.43,5.34-.66,2.66-3.32,2.68-1.31,3.31-3.32,4.68-.66,3.32.66c3.34.66,0,0,4,0l4.68-1.99h3.99l5.32.66,2.68-2.64,2-.66c2-.67,2.66,0,2.66,0h3.34l3.32-.67,3.33-1.99.66-3.98,2.68-3.3,1.32-3.32,2-.66c1.83-.62,5.31-1.22,5.91-1.32.07-.01.12-.02.19-.04l2.58-.63,5.99,2.64,2.66,1.33,1.95-3.23c.04-.06.07-.12.1-.18l1.29-2.55,2-3.32,4-2.64,3.32-.68h6.67l4,.68,4.17-1.39c.28-.13,1.05-.43,3.15-1.28l1.34-3.3,2.66-.68c2.68-.66,2.68.68,2.68.68l3.99.66,2,.66c2,.68,0,0,4.66,1.99,4.66,1.99,0,0,2,1.99,2,1.99,0,0,4.66,3.98l3.34.68h3.34l3.99-.68s2.66-1.31,4.66-1.31,4,.66,4,.66l2.66,1.33c2.68,1.31,5.34,0,5.34,0l2,.66c1.32.43,2.35.58,2.9.63.31.03.61.1.89.23l5.54,2.46,4,3.98,2.66,1.31,4.66-.66,5.6-1.24c.28-.06.57-.08.85-.06.9.09,3.04.46,5.54,1.96l2.68,1.33h15.99l3.32,1.33h3.34l2.66-.67h4.68c1.99,0,2.65.67,4.65.67s1.34,2.64,1.34,2.64l6.66.66v125.46H.5Z"/>
</svg>