<?xml version="1.0" encoding="UTF-8"?>
<svg id="Layer_1" data-name="Layer 1" xmlns="http://www.w3.org/2000/svg" version="1.1" viewBox="0 0 48 48">
  <defs>
    <style>
      .cls-1, .cls-2 {
        fill: #36B2E8;
        stroke-width: 0px;
      }

      .cls-2 {
        isolation: isolate;
        opacity: .2;
      }
    </style>
  </defs>
  <path class="cls-2" d="M28.5,37.49v-16.19h15.29c.48,0,.93.19,1.27.53s.53.79.53,1.27v14.39c0,.48-.19.93-.53,1.27s-.79.53-1.27.53h-13.49c-.48,0-.93-.19-1.27-.53s-.53-.79-.53-1.27ZM4.22,39.29h13.49c.48,0,.93-.19,1.27-.53s.53-.79.53-1.27v-14.39c0-.48-.19-.93-.53-1.27s-.79-.53-1.27-.53H2.42v16.19c0,.48.19.93.53,1.27s.79.53,1.27.53Z"/>
  <path class="cls-1" d="M30.29,41.09h13.49c.95,0,1.87-.38,2.54-1.05s1.05-1.59,1.05-2.54v-14.39c0-.95-.38-1.87-1.05-2.54-.67-.67-1.59-1.05-2.54-1.05h-13.49v-1.8c0-1.91.76-3.74,2.11-5.09,1.35-1.35,3.18-2.11,5.09-2.11.48,0,.93-.19,1.27-.53.34-.34.53-.79.53-1.27s-.19-.93-.53-1.27c-.34-.34-.79-.53-1.27-.53-2.86,0-5.6,1.14-7.63,3.16-2.02,2.02-3.16,4.77-3.16,7.63v19.78c0,.95.38,1.87,1.05,2.54.67.67,1.59,1.05,2.54,1.05ZM30.29,23.1h13.49v14.39h-13.49v-14.39ZM4.22,41.09h13.49c.95,0,1.87-.38,2.54-1.05.67-.67,1.05-1.59,1.05-2.54v-14.39c0-.95-.38-1.87-1.05-2.54-.67-.67-1.59-1.05-2.54-1.05H4.22v-1.8c0-1.91.76-3.74,2.11-5.09,1.35-1.35,3.18-2.11,5.09-2.11.48,0,.93-.19,1.27-.53.34-.34.53-.79.53-1.27s-.19-.93-.53-1.27c-.34-.34-.79-.53-1.27-.53-2.86,0-5.6,1.14-7.63,3.16-2.02,2.02-3.16,4.77-3.16,7.63v19.78c0,.95.38,1.87,1.05,2.54.67.67,1.59,1.05,2.54,1.05ZM4.22,23.1h13.49v14.39H4.22v-14.39Z"/>
</svg>