<svg width="30" height="30" viewBox="0 0 30 30" fill="none" xmlns="http://www.w3.org/2000/svg">
<path opacity="0.2" d="M28.125 7.5V21.5625C28.125 22.0598 27.9275 22.5367 27.5758 22.8883C27.2242 23.24 26.7473 23.4375 26.25 23.4375H4.6875V7.5C4.6875 7.00272 4.88504 6.52581 5.23667 6.17417C5.58831 5.82254 6.06522 5.625 6.5625 5.625H26.25C26.7473 5.625 27.2242 5.82254 27.5758 6.17417C27.9275 6.52581 28.125 7.00272 28.125 7.5Z" fill="white"/>
<path d="M29.0625 16.875C29.0625 17.1236 28.9637 17.3621 28.7879 17.5379C28.6121 17.7137 28.3736 17.8125 28.125 17.8125H22.5C22.3258 17.8125 22.1552 17.764 22.0071 17.6725C21.859 17.581 21.7393 17.45 21.6614 17.2943C21.5836 17.1385 21.5506 16.9642 21.5662 16.7908C21.5819 16.6174 21.6455 16.4518 21.75 16.3125L26.8089 9.56836C26.9709 9.35248 27.0844 9.10418 27.1416 8.84043C27.1988 8.57667 27.1984 8.30367 27.1404 8.04008C27.0824 7.77649 26.9682 7.52853 26.8056 7.31315C26.6429 7.09776 26.4357 6.92002 26.1981 6.79207C25.9604 6.66413 25.698 6.58899 25.4286 6.5718C25.1593 6.55461 24.8894 6.59577 24.6374 6.69247C24.3855 6.78916 24.1573 6.93912 23.9686 7.13208C23.7799 7.32504 23.6351 7.55647 23.5441 7.81054C23.5031 7.92666 23.4396 8.03355 23.3573 8.12513C23.275 8.21671 23.1754 8.29118 23.0643 8.34428C22.9532 8.39739 22.8327 8.42809 22.7097 8.43463C22.5868 8.44117 22.4637 8.42343 22.3476 8.38242C22.2315 8.34141 22.1246 8.27793 22.033 8.1956C21.9414 8.11328 21.867 8.01372 21.8139 7.90262C21.7608 7.79151 21.7301 7.67104 21.7235 7.54807C21.717 7.4251 21.7347 7.30205 21.7757 7.18594C21.9563 6.67655 22.2449 6.21221 22.6216 5.82474C22.9984 5.43726 23.4544 5.1358 23.9586 4.941C24.4627 4.7462 25.003 4.66267 25.5424 4.69613C26.0818 4.72959 26.6076 4.87924 27.0838 5.13485C27.5599 5.39045 27.9753 5.74597 28.3012 6.17703C28.6272 6.6081 28.8562 7.10453 28.9724 7.63233C29.0887 8.16013 29.0895 8.70682 28.9747 9.23495C28.86 9.76308 28.6325 10.2602 28.3078 10.6922L24.375 15.9375H28.125C28.3736 15.9375 28.6121 16.0363 28.7879 16.2121C28.9637 16.3879 29.0625 16.6264 29.0625 16.875ZM17.489 8.67187C17.396 8.59111 17.288 8.52947 17.1712 8.49047C17.0543 8.45146 16.9309 8.43587 16.8081 8.44458C16.6852 8.45328 16.5652 8.48612 16.4551 8.54121C16.3449 8.59629 16.2467 8.67255 16.166 8.76562L10.7812 14.9754L5.39644 8.76445C5.22835 8.59904 5.00409 8.50305 4.76838 8.49563C4.53266 8.4882 4.30281 8.56989 4.12464 8.7244C3.94648 8.87891 3.83309 9.09489 3.80708 9.32928C3.78108 9.56367 3.84436 9.79925 3.98433 9.98906L9.54019 16.4062L3.98433 22.8234C3.90369 22.9165 3.84218 23.0246 3.8033 23.1415C3.76443 23.2584 3.74896 23.3818 3.75778 23.5046C3.76659 23.6275 3.79952 23.7474 3.85467 23.8575C3.90983 23.9677 3.98614 24.0658 4.07925 24.1465C4.26728 24.3093 4.51231 24.3908 4.76043 24.373C4.88329 24.3642 5.0032 24.3313 5.11334 24.2761C5.22347 24.221 5.32166 24.1447 5.4023 24.0516L10.7929 17.8406L16.1777 24.0516C16.3405 24.2396 16.5714 24.3552 16.8196 24.373C17.0677 24.3908 17.3127 24.3093 17.5007 24.1465C17.6888 23.9836 17.8044 23.7527 17.8222 23.5046C17.84 23.2565 17.7585 23.0115 17.5957 22.8234L12.0222 16.4062L17.5839 9.98906C17.7451 9.80139 17.8255 9.55764 17.8078 9.31092C17.79 9.06419 17.6754 8.83449 17.489 8.67187Z" fill="white"/>
</svg>
