<svg width="238" height="84" viewBox="0 0 238 84" fill="none" xmlns="http://www.w3.org/2000/svg">
<g filter="url(#filter0_d_99_72)">
<path d="M13.8755 67.4411H19.2549C20.4915 69.7869 24.3004 69.2115 24.3004 65.7149C24.3004 62.2183 20.034 61.5396 19.057 64.4903L13.8632 63.9002V55.6676L19.1189 56.2873C20.1453 59.061 24.3375 58.6184 24.3375 54.9447C24.3285 54.3845 24.1982 53.8367 23.9591 53.3545C23.7201 52.8722 23.3805 52.472 22.9734 52.1928C22.5663 51.9135 22.1055 51.7648 21.6359 51.761C21.1664 51.7571 20.7039 51.8984 20.2937 52.171H20.1948L20.0464 52.289C19.8191 52.4697 19.6186 52.694 19.4528 52.9529H13.9003V44.5285L19.2673 45.4433C19.3915 45.8284 19.5987 46.1675 19.868 46.4266C20.1372 46.6856 20.4589 46.8553 20.8007 46.9186C21.2074 47.1335 21.6525 47.2238 22.0959 47.1814C22.5392 47.139 22.9666 46.9652 23.3393 46.6757C23.7121 46.3863 24.0184 45.9904 24.2304 45.524C24.4424 45.0576 24.5535 44.5354 24.5535 44.0048C24.5535 43.4742 24.4424 42.952 24.2304 42.4855C24.0184 42.0191 23.7121 41.6232 23.3393 41.3338C22.9666 41.0444 22.5392 40.8706 22.0959 40.8282C21.6525 40.7857 21.2074 40.8761 20.8007 41.0909C20.503 41.1421 20.2199 41.2772 19.9747 41.485C19.7295 41.6929 19.5294 41.9674 19.3909 42.286L13.8879 41.3565V35.2337L19.0818 34.7616C20.0587 37.6238 24.3251 37.2107 24.3251 33.5075C24.3313 33.0652 24.258 32.6264 24.1102 32.2207C23.9623 31.815 23.7434 31.4517 23.4681 31.1554C23.1928 30.8591 22.8674 30.6365 22.514 30.5027C22.1605 30.3689 21.7872 30.327 21.419 30.3797C21.2524 30.3086 21.0765 30.2736 20.8996 30.2764C20.4861 30.3096 20.0917 30.497 19.7722 30.812C19.4527 31.127 19.2242 31.5538 19.1189 32.0321L13.8755 32.5042V24.2716L19.0818 23.6372C19.9474 26.6617 24.3746 26.3077 24.3746 22.5307C24.3755 22.0451 24.2824 21.5657 24.1027 21.13C23.923 20.6942 23.6614 20.3138 23.3384 20.0183C23.0153 19.7228 22.6395 19.5202 22.2401 19.4263C21.8407 19.3323 21.4286 19.3496 21.0357 19.4767H20.8873C20.5775 19.4993 20.2773 19.6136 20.0139 19.8094C19.7505 20.0052 19.5321 20.2762 19.3786 20.598H13.8632V12.1588L18.9828 12.9703C20.0711 15.6407 24.152 15.1686 24.152 11.4949C24.152 7.82122 19.9969 7.57041 18.8097 10.049L13.6777 9.9015C13.6035 6.41961 13.1459 4 16.0767 4H227.357C227.372 4.69725 227.502 5.38407 227.74 6.02126C227.79 6.20854 227.79 6.40938 227.74 6.59666C227.567 7.27471 227.567 7.99888 227.74 8.67694C227.827 9.05354 227.827 9.45113 227.74 9.82773C227.604 10.6097 227.443 11.3916 227.344 12.1883C227.245 12.985 227.27 14.0178 226.565 14.6227C226.38 15.0063 226.071 15.3014 225.885 15.6997C225.763 16.3321 225.536 16.9289 225.217 17.4554C224.962 17.6934 224.754 17.9949 224.606 18.3389C224.459 18.6829 224.376 19.0611 224.364 19.4472C224.341 19.618 224.277 19.777 224.179 19.9045C224.085 20.0135 224.011 20.1449 223.963 20.2901C223.915 20.4354 223.893 20.5912 223.899 20.7473C223.904 20.9034 223.938 21.0563 223.997 21.1958C224.056 21.3354 224.139 21.4585 224.24 21.557C224.307 21.6819 224.349 21.823 224.364 21.9701C224.401 22.1863 224.477 22.39 224.589 22.5662C224.7 22.7424 224.843 22.8865 225.007 22.9881C225.014 23.0517 225.014 23.1162 225.007 23.1799C225.072 23.3542 225.105 23.5426 225.105 23.7331C225.105 23.9236 225.072 24.1121 225.007 24.2864C224.933 24.552 224.772 24.8175 224.896 25.1126C224.902 25.1813 224.902 25.2505 224.896 25.3192C224.775 25.7412 224.745 26.1928 224.809 26.6322C224.832 26.7119 224.837 26.7972 224.824 26.88C224.811 26.9627 224.781 27.04 224.735 27.1044C224.564 27.3336 224.449 27.6139 224.401 27.9152C224.353 28.2166 224.374 28.5278 224.463 28.8158C224.497 28.9036 224.515 28.9993 224.515 29.0961C224.515 29.193 224.497 29.2886 224.463 29.3764C223.956 30.2617 224.117 31.5895 223.226 32.1944C223.115 32.2682 223.127 32.46 223.14 32.6075C223.096 32.9696 223.096 33.3372 223.14 33.6993C223.147 33.7679 223.147 33.8372 223.14 33.9058C222.988 34.2414 222.903 34.6138 222.89 34.9948C222.877 35.3757 222.937 35.7551 223.066 36.1041C223.096 36.2395 223.096 36.3819 223.066 36.5172C222.811 36.8304 222.645 37.231 222.592 37.6626C222.539 38.0941 222.601 38.5347 222.769 38.9221C222.791 39.0919 222.861 39.2478 222.967 39.3647C223.183 39.5533 223.349 39.8122 223.446 40.1104C223.542 40.4086 223.565 40.7336 223.511 41.0466C223.49 41.3561 223.525 41.6673 223.612 41.9598C223.699 42.2522 223.838 42.5193 224.018 42.7433C224.475 43.2745 224.797 43.9236 225.255 44.4843C225.467 44.783 225.584 45.1621 225.584 45.5539C225.584 45.9458 225.467 46.3249 225.255 46.6236C224.98 47.0764 224.832 47.6211 224.832 48.1801C224.832 48.739 224.98 49.2837 225.255 49.7366C225.33 49.8037 225.39 49.8925 225.429 49.9949C225.468 50.0972 225.485 50.2097 225.477 50.3217C225.47 50.4338 225.439 50.5418 225.387 50.6355C225.335 50.7293 225.264 50.8058 225.18 50.8579C225.026 51.0014 224.908 51.1935 224.841 51.4124C224.773 51.6314 224.758 51.8685 224.797 52.0972C224.861 52.5276 224.964 52.9482 225.106 53.3513C225.379 54.2652 225.427 55.2537 225.242 56.1987C225.168 56.5523 225.168 56.9222 225.242 57.2758C225.331 57.5425 225.36 57.832 225.328 58.1163C225.295 58.4006 225.202 58.6701 225.057 58.8987C224.687 59.3895 224.442 59.9953 224.35 60.6457C224.259 61.296 224.323 61.9642 224.537 62.5724C224.896 63.9149 224.179 65.287 224.846 66.5264C224.68 67.5212 224.779 68.5534 225.131 69.4771C225.088 69.6849 225.106 69.904 225.183 70.0975C225.259 70.2911 225.389 70.4471 225.551 70.5394C225.588 70.5955 225.614 70.6612 225.625 70.7312C225.7 71.159 225.762 71.5869 225.86 72H13.9003L13.8755 67.4411Z" fill="#212227"/>
</g>
<path opacity="0.71" d="M3.10397 17.8685C3.05795 16.3696 3.43219 14.8951 4.16748 13.6785C4.97932 15.1364 5.48416 16.8066 5.63908 18.5472C7.30855 17.957 7.8403 15.0948 8.11236 12.7195C8.53465 14.3821 9.17311 15.9553 10.0044 17.3816L11.2411 12.4834L13.3434 16.3931C13.7514 14.785 14.1472 13.1621 14.58 11.5539L16.7317 15.4637C16.9049 13.885 17.0656 12.3211 17.2264 10.7572C19.0226 20.9337 20.2619 31.2388 20.9363 41.6073C21.6288 49.9481 22.3172 58.3085 23.0015 66.6887C22.2595 65.6264 21.5052 64.5789 20.7508 63.5166L18.3641 66.2608C18.4217 65.9865 18.4198 65.6992 18.3587 65.426C18.2976 65.1527 18.1792 64.9026 18.0147 64.6989C17.8502 64.4953 17.6451 64.345 17.4184 64.262C17.1918 64.1791 16.9513 64.1663 16.7194 64.2248C15.8537 64.5641 15.322 65.7001 14.8768 66.8509C14.4967 65.7057 13.7922 64.7555 12.8858 64.1658C12.4552 65.1822 11.8581 66.0853 11.1298 66.8214C10.7588 65.951 10.3878 65.0805 10.0044 64.21L8.55755 67.7804L6.56656 65.0362C5.895 65.832 5.46061 66.8685 5.32992 67.987C5.12227 60.6086 4.53583 53.2524 3.57389 45.9596C2.38672 35.5435 1.19542 25.1224 0 14.6965L3.10397 17.8685Z" fill="#212227"/>
<defs>
<filter id="filter0_d_99_72" x="7.70791" y="0.0999999" width="229.997" height="83.8" filterUnits="userSpaceOnUse" color-interpolation-filters="sRGB">
<feFlood flood-opacity="0" result="BackgroundImageFix"/>
<feColorMatrix in="SourceAlpha" type="matrix" values="0 0 0 0 0 0 0 0 0 0 0 0 0 0 0 0 0 0 127 0" result="hardAlpha"/>
<feOffset dx="2" dy="4"/>
<feGaussianBlur stdDeviation="3.95"/>
<feComposite in2="hardAlpha" operator="out"/>
<feColorMatrix type="matrix" values="0 0 0 0 0 0 0 0 0 0 0 0 0 0 0 0 0 0 0.15 0"/>
<feBlend mode="normal" in2="BackgroundImageFix" result="effect1_dropShadow_99_72"/>
<feBlend mode="normal" in="SourceGraphic" in2="effect1_dropShadow_99_72" result="shape"/>
</filter>
</defs>
</svg>
